<?xml version="1.0" standalone="no"?>
<!DOCTYPE svg PUBLIC "-//W3C//DTD SVG 20010904//EN"
 "http://www.w3.org/TR/2001/REC-SVG-20010904/DTD/svg10.dtd">
<svg version="1.0" xmlns="http://www.w3.org/2000/svg"
 width="700.000000pt" height="700.000000pt" viewBox="0 0 700.000000 700.000000"
 preserveAspectRatio="xMidYMid meet">
<metadata>
Created by potrace 1.14, written by Peter Selinger 2001-2017
</metadata>
<g transform="translate(0.000000,700.000000) scale(0.100000,-0.100000)"
fill="#000000" stroke="none">
<path d="M1582 6988 c-49 -13 -109 -78 -119 -128 -4 -23 -8 -162 -7 -308 l0
-267 177 -3 177 -2 1 97 c4 485 1 508 -49 566 -37 41 -118 62 -180 45z"/>
<path d="M2477 6991 c-42 -9 -97 -59 -117 -105 -15 -36 -18 -76 -17 -323 l0
-283 178 0 178 0 -1 283 c0 155 -4 296 -9 312 -9 34 -62 93 -95 105 -33 13
-86 18 -117 11z"/>
<path d="M3357 6986 c-56 -17 -101 -58 -115 -104 -8 -26 -12 -132 -12 -321 l0
-281 178 2 177 3 0 269 c0 164 -4 287 -11 313 -24 94 -122 148 -217 119z"/>
<path d="M4237 6985 c-45 -16 -82 -48 -105 -90 -13 -25 -16 -75 -17 -322 l0
-293 177 0 178 0 0 285 c0 306 -4 332 -53 380 -44 43 -123 61 -180 40z"/>
<path d="M5140 6991 c-41 -10 -84 -41 -110 -79 l-25 -36 -3 -298 -2 -298 177
2 178 3 1 285 c1 303 -1 315 -50 368 -40 44 -110 67 -166 53z"/>
<path d="M1083 6146 c-111 -41 -192 -124 -230 -235 l-22 -66 -1 -2340 c0
-1613 3 -2352 11 -2380 27 -103 82 -179 167 -233 104 -66 -84 -62 2486 -62
2546 0 2390 -4 2492 56 78 46 139 128 173 233 8 24 11 711 11 2376 0 2113 -2
2347 -16 2396 -38 128 -122 215 -252 260 -53 18 -127 19 -2406 18 l-2351 0
-62 -23z m1247 -2075 c160 -43 274 -155 314 -308 16 -60 18 -59 -73 -58 l-63
1 -13 37 c-47 136 -153 202 -320 201 -73 -1 -100 -6 -146 -26 -146 -66 -230
-225 -232 -438 -1 -121 20 -237 51 -290 83 -138 160 -184 318 -189 161 -5 282
88 335 259 l17 55 74 2 75 1 -9 -50 c-33 -183 -140 -309 -323 -383 -62 -25
-226 -31 -305 -11 -212 54 -347 214 -384 456 -13 85 -13 220 -1 295 38 227
186 394 395 446 75 18 220 18 290 0z m687 -231 c0 -118 2 -226 2 -240 l1 -25
272 2 c150 1 287 2 303 2 l30 1 0 231 c0 127 2 234 5 238 3 4 38 7 78 7 57 -1
72 -4 73 -16 0 -8 1 -269 1 -580 l1 -565 -79 -3 -79 -3 0 273 0 273 -303 1
-302 2 -1 -27 c-1 -14 -1 -137 -1 -273 l0 -248 -79 0 -79 0 0 578 c0 318 2
581 5 583 2 3 37 5 77 4 l73 0 2 -215z m1193 -367 l0 -583 -78 0 -78 0 0 578
c0 317 3 580 8 583 4 3 39 5 78 5 l70 -1 0 -582z m895 574 c94 -16 186 -77
223 -148 30 -59 37 -95 36 -190 -1 -159 -95 -279 -246 -314 -43 -10 -123 -14
-256 -15 -107 0 -197 -2 -201 -4 -3 -3 -6 -107 -6 -233 1 -125 -1 -234 -3
-240 -3 -9 -28 -13 -78 -13 -52 0 -74 4 -75 13 -2 35 -4 1134 -1 1142 2 10
553 12 607 2z"/>
<path d="M4700 3920 l-45 -5 0 -197 c0 -127 3 -198 10 -199 57 -5 331 -2 370
4 107 18 161 77 168 182 7 106 -31 172 -115 198 -54 17 -294 27 -388 17z"/>
<path d="M110 5434 c-73 -31 -110 -91 -106 -170 4 -68 29 -110 91 -149 28 -17
53 -19 325 -19 l295 -1 3 178 2 177 -287 0 c-234 -1 -295 -4 -323 -16z"/>
<path d="M6280 5272 l0 -178 293 2 c175 0 302 5 317 11 35 15 80 62 96 100 18
42 18 85 -1 130 -20 48 -41 71 -86 93 -32 17 -65 19 -327 20 l-292 1 0 -179z"/>
<path d="M126 4553 c-125 -37 -162 -202 -64 -296 45 -43 73 -47 373 -47 l285
0 -2 177 -3 177 -274 1 c-186 0 -286 -4 -315 -12z"/>
<path d="M6280 4388 l0 -178 290 0 c266 0 294 2 328 19 85 44 121 155 78 239
-18 34 -68 75 -106 88 -14 4 -152 8 -308 8 l-282 1 0 -177z"/>
<path d="M123 3666 c-103 -36 -148 -160 -92 -255 49 -83 73 -88 407 -88 l282
-1 0 178 0 177 -282 0 c-183 0 -294 -4 -315 -11z"/>
<path d="M6280 3500 l0 -178 298 2 297 1 37 25 c61 41 85 98 80 191 -3 36 -72
113 -114 126 -21 6 -149 10 -316 10 l-282 1 0 -178z"/>
<path d="M97 2769 c-109 -58 -123 -218 -25 -293 18 -13 49 -28 68 -33 19 -5
157 -8 305 -8 l270 0 3 178 2 177 -292 0 c-272 -1 -296 -2 -331 -21z"/>
<path d="M6282 2613 l3 -178 293 1 292 0 42 30 c111 78 108 232 -6 299 l-43
25 -292 0 -291 0 2 -177z"/>
<path d="M145 1900 c-127 -26 -182 -178 -103 -280 11 -14 36 -35 56 -47 34
-21 45 -22 329 -23 l293 -1 -2 178 -3 178 -270 0 c-149 1 -284 -2 -300 -5z"/>
<path d="M6280 1728 l0 -179 298 3 299 3 40 27 c112 74 100 241 -22 306 -25
13 -75 16 -322 17 l-293 1 0 -178z"/>
<path d="M1459 703 c-5 -99 -2 -527 4 -558 41 -199 336 -175 346 29 2 46 4
433 2 514 l-1 32 -175 0 c-160 0 -175 -2 -176 -17z"/>
<path d="M2342 438 c1 -301 4 -326 51 -376 76 -82 215 -70 277 24 l25 37 3
299 3 298 -179 0 -180 0 0 -282z"/>
<path d="M3230 435 c0 -315 3 -334 61 -386 30 -26 69 -42 114 -44 36 -2 102
25 128 53 48 51 54 94 53 387 l-1 270 -177 3 -178 2 0 -285z"/>
<path d="M4116 433 c1 -201 5 -297 13 -318 57 -140 255 -147 321 -10 19 38 20
62 20 328 l0 287 -178 0 -177 0 1 -287z"/>
<path d="M5003 422 c2 -296 2 -299 26 -333 78 -115 243 -109 307 11 17 32 18
63 20 328 l1 292 -178 0 -178 0 2 -298z"/>
</g>
</svg>
